<svg xmlns="http://www.w3.org/2000/svg" version="1.1" xmlns:xlink="http://www.w3.org/1999/xlink" xmlns:svgjs="http://svgjs.com/svgjs" width="1500" height="1200" preserveAspectRatio="none" viewBox="0 0 1500 1200"><g mask="url(&quot;#SvgjsMask1025&quot;)" fill="none"><use xlink:href="#SvgjsG1033" transform="translate(0, 0)" fill="rgba(245, 245, 220, 1)"></use><use xlink:href="#SvgjsG1033" transform="translate(0, 480)" fill="rgba(245, 245, 220, 1)"></use><use xlink:href="#SvgjsG1033" transform="translate(0, 960)" fill="rgba(245, 245, 220, 1)"></use><use xlink:href="#SvgjsG1033" transform="translate(480, 0)" fill="rgba(245, 245, 220, 1)"></use><use xlink:href="#SvgjsG1033" transform="translate(480, 480)" fill="rgba(245, 245, 220, 1)"></use><use xlink:href="#SvgjsG1033" transform="translate(480, 960)" fill="rgba(245, 245, 220, 1)"></use><use xlink:href="#SvgjsG1033" transform="translate(960, 0)" fill="rgba(245, 245, 220, 1)"></use><use xlink:href="#SvgjsG1033" transform="translate(960, 480)" fill="rgba(245, 245, 220, 1)"></use><use xlink:href="#SvgjsG1033" transform="translate(960, 960)" fill="rgba(245, 245, 220, 1)"></use><use xlink:href="#SvgjsG1033" transform="translate(1440, 0)" fill="rgba(245, 245, 220, 1)"></use><use xlink:href="#SvgjsG1033" transform="translate(1440, 480)" fill="rgba(245, 245, 220, 1)"></use><use xlink:href="#SvgjsG1033" transform="translate(1440, 960)" fill="rgba(245, 245, 220, 1)"></use></g><defs><mask id="SvgjsMask1025"><rect width="1500" height="1200" fill="#ffffff"></rect></mask><g id="SvgjsG1026"><path d="M3.474 10.969C3.474 7.665 8.077 0.361 8.077 0.361s4.602 7.305 4.602 10.608c0 2.247-1.506 4.771-4.602 4.771-3.095 0-4.603-2.524-4.603-4.771z" fill-rule="evenodd"></path></g><g id="SvgjsG1029"><path d="M7.713 15.485C3.459 15.485 0 12.025 0 7.768 0 3.513 3.459 0.051 7.713 0.051S15.432 3.513 15.432 7.768c0 4.257-3.465 7.716-7.719 7.717z m0-1.91c3.201 0 5.81-2.604 5.81-5.809 0-3.199-2.61-5.807-5.81-5.807-3.202 0-5.804 2.609-5.804 5.807-0.001 3.206 2.602 5.809 5.804 5.809z"></path><path d="M7.753 8.787a0.574 0.574 0 0 1-0.554-0.042 0.578 0.578 0 0 1-0.259-0.399L6.931 3.862a0.58 0.58 0 0 1 1.162 0v3.478l2.975-1.4a0.578 0.578 0 0 1 0.773 0.275c0.138 0.292 0.011 0.637-0.276 0.774l-3.81 1.798z"></path></g><g id="SvgjsG1028"><path d="M2.524 8.637H0.014V7.308h2.51v1.329zM3.656 4.576L1.884 2.804l0.935-0.935 1.772 1.772-0.935 0.935z m0 6.817l0.935 0.935-1.772 1.773-0.934-0.936 1.771-1.772z m4.997-8.884h-1.33V-0.002h1.33v2.511z m-1.33 10.952h1.33v2.51h-1.33v-2.509zM12.344 4.576l-0.96-0.935 1.796-1.772 0.935 0.935-1.772 1.772z m0 6.792l1.771 1.797-0.935 0.936-1.771-1.774 0.936-0.96z m3.643-4.06v1.329h-2.51V7.308h2.509z"></path><path d="M3.702 7.984a4.184 4.184 0 1 0 8.368 0 4.184 4.184 0 1 0-8.368 0"></path></g><g id="SvgjsG1032"><path d="M15.065 12.151H0.02c0 1.333 1.015 1.95 1.83 1.95h11.386c0.975 0 1.83-0.767 1.829-1.951zM12.853 2.166H1.869v7.208c0 0.976 0.843 1.75 1.755 1.75h7.121c1.031 0 1.731-0.863 1.731-1.749V8.773c2.031 0 3.505-1.527 3.505-3.303 0-1.815-1.445-3.303-3.126-3.303z m1.832 3.305c0 1.036-0.763 2.025-2.21 1.931V3.519l0.378 0 0 0.001c1.391 0 1.837 1.318 1.832 1.952v-0.001z"></path></g><g id="SvgjsG1027"><path d="M13.143 15.716v-2.374L2.833 9.897v2.376l10.31 3.443z m-7.932-5.816c-0.355-0.4-2.712-3.125-0.334-5.482C6.86 2.452 7.149 0.801 6.481 0c0 0 5.045 2.073 2.078 6.882-0.508 0.817-1.777 1.781-1.114 3.769l-2.234-0.75z m3.098 0.653c-0.109-0.403-0.592-1.282 0.884-3.03 0.789-0.931 1.085-2.312 1.157-2.832 0 0 2.613 1.498 0.013 5.165l-2.054 0.697z m0.555 0.562l4.279-1.429v2.374l-0.725 0.239-3.553-1.184zM7.113 14.499L2.833 15.925v-2.374l0.728-0.238 3.552 1.186z" fill-rule="evenodd"></path></g><g id="SvgjsG1030"><path d="M11.221 11.657c-2.056 2.056-5.389 2.055-7.444 0-2.056-2.056-2.056-5.389 0-7.444 0.976-0.977 2.617-2.176 5.214-2.176 4.749 0 6.224-1.252 6.224-1.252 0 5.707-1.938 8.816-3.994 10.872z"></path><path d="M3.223 11.626L2.552 10.224l6.437-4.363z"></path><path d="M8.989 5.861l1.15 1.15-8.203 8.203-1.151-1.15z"></path></g><g id="SvgjsG1031"><path d="M7.867 14.689a9.978 9.978 0 0 0-1.863-6.862A9.989 9.989 0 0 0 0.059 3.924 9.973 9.973 0 0 0 1.92 10.788a9.979 9.979 0 0 0 5.947 3.902z m-0.971-7.508a11.292 11.292 0 0 1 1 1.675 11.329 11.329 0 0 1 0.996-1.675 11.095 11.095 0 0 1 1.477-1.65A9.969 9.969 0 0 0 7.914 0a9.977 9.977 0 0 0-2.456 5.564 11.227 11.227 0 0 1 1.438 1.617z m8.833-3.258a9.988 9.988 0 0 0-5.945 3.904 10.058 10.058 0 0 0-1.314 2.479 11.075 11.075 0 0 1 0.513 4.081 9.966 9.966 0 0 0 4.886-3.599A9.973 9.973 0 0 0 15.729 3.924z" fill-rule="evenodd"></path></g><g id="SvgjsG1033"><use xlink:href="#SvgjsG1026" transform="translate(0, 0) scale(2)" fill="rgba(245, 245, 220, 1)"></use><use xlink:href="#SvgjsG1027" transform="translate(0, 48) scale(2)" fill="rgba(245, 245, 220, 1)"></use><use xlink:href="#SvgjsG1028" transform="translate(0, 96) scale(2)" fill="rgba(245, 245, 220, 1)"></use><use xlink:href="#SvgjsG1027" transform="translate(0, 144) scale(2)" fill="rgba(245, 245, 220, 1)"></use><use xlink:href="#SvgjsG1029" transform="translate(0, 192) scale(2)" fill="rgba(245, 245, 220, 1)"></use><use xlink:href="#SvgjsG1030" transform="translate(0, 240) scale(2)" fill="rgba(245, 245, 220, 1)"></use><use xlink:href="#SvgjsG1027" transform="translate(0, 288) scale(2)" fill="rgba(245, 245, 220, 1)"></use><use xlink:href="#SvgjsG1027" transform="translate(0, 336) scale(2)" fill="rgba(245, 245, 220, 1)"></use><use xlink:href="#SvgjsG1026" transform="translate(0, 384) scale(2)" fill="rgba(245, 245, 220, 1)"></use><use xlink:href="#SvgjsG1031" transform="translate(0, 432) scale(2)" fill="rgba(245, 245, 220, 1)"></use><use xlink:href="#SvgjsG1026" transform="translate(48, 0) scale(2)" fill="rgba(245, 245, 220, 1)"></use><use xlink:href="#SvgjsG1032" transform="translate(48, 48) scale(2)" fill="rgba(245, 245, 220, 1)"></use><use xlink:href="#SvgjsG1028" transform="translate(48, 96) scale(2)" fill="rgba(245, 245, 220, 1)"></use><use xlink:href="#SvgjsG1028" transform="translate(48, 144) scale(2)" fill="rgba(245, 245, 220, 1)"></use><use xlink:href="#SvgjsG1029" transform="translate(48, 192) scale(2)" fill="rgba(245, 245, 220, 1)"></use><use xlink:href="#SvgjsG1031" transform="translate(48, 240) scale(2)" fill="rgba(245, 245, 220, 1)"></use><use xlink:href="#SvgjsG1027" transform="translate(48, 288) scale(2)" fill="rgba(245, 245, 220, 1)"></use><use xlink:href="#SvgjsG1029" transform="translate(48, 336) scale(2)" fill="rgba(245, 245, 220, 1)"></use><use xlink:href="#SvgjsG1032" transform="translate(48, 384) scale(2)" fill="rgba(245, 245, 220, 1)"></use><use xlink:href="#SvgjsG1030" transform="translate(48, 432) scale(2)" fill="rgba(245, 245, 220, 1)"></use><use xlink:href="#SvgjsG1031" transform="translate(96, 0) scale(2)" fill="rgba(245, 245, 220, 1)"></use><use xlink:href="#SvgjsG1028" transform="translate(96, 48) scale(2)" fill="rgba(245, 245, 220, 1)"></use><use xlink:href="#SvgjsG1030" transform="translate(96, 96) scale(2)" fill="rgba(245, 245, 220, 1)"></use><use xlink:href="#SvgjsG1031" transform="translate(96, 144) scale(2)" fill="rgba(245, 245, 220, 1)"></use><use xlink:href="#SvgjsG1029" transform="translate(96, 192) scale(2)" fill="rgba(245, 245, 220, 1)"></use><use xlink:href="#SvgjsG1029" transform="translate(96, 240) scale(2)" fill="rgba(245, 245, 220, 1)"></use><use xlink:href="#SvgjsG1029" transform="translate(96, 288) scale(2)" fill="rgba(245, 245, 220, 1)"></use><use xlink:href="#SvgjsG1031" transform="translate(96, 336) scale(2)" fill="rgba(245, 245, 220, 1)"></use><use xlink:href="#SvgjsG1030" transform="translate(96, 384) scale(2)" fill="rgba(245, 245, 220, 1)"></use><use xlink:href="#SvgjsG1031" transform="translate(96, 432) scale(2)" fill="rgba(245, 245, 220, 1)"></use><use xlink:href="#SvgjsG1030" transform="translate(144, 0) scale(2)" fill="rgba(245, 245, 220, 1)"></use><use xlink:href="#SvgjsG1030" transform="translate(144, 48) scale(2)" fill="rgba(245, 245, 220, 1)"></use><use xlink:href="#SvgjsG1032" transform="translate(144, 96) scale(2)" fill="rgba(245, 245, 220, 1)"></use><use xlink:href="#SvgjsG1030" transform="translate(144, 144) scale(2)" fill="rgba(245, 245, 220, 1)"></use><use xlink:href="#SvgjsG1026" transform="translate(144, 192) scale(2)" fill="rgba(245, 245, 220, 1)"></use><use xlink:href="#SvgjsG1028" transform="translate(144, 240) scale(2)" fill="rgba(245, 245, 220, 1)"></use><use xlink:href="#SvgjsG1028" transform="translate(144, 288) scale(2)" fill="rgba(245, 245, 220, 1)"></use><use xlink:href="#SvgjsG1026" transform="translate(144, 336) scale(2)" fill="rgba(245, 245, 220, 1)"></use><use xlink:href="#SvgjsG1032" transform="translate(144, 384) scale(2)" fill="rgba(245, 245, 220, 1)"></use><use xlink:href="#SvgjsG1030" transform="translate(144, 432) scale(2)" fill="rgba(245, 245, 220, 1)"></use><use xlink:href="#SvgjsG1028" transform="translate(192, 0) scale(2)" fill="rgba(245, 245, 220, 1)"></use><use xlink:href="#SvgjsG1028" transform="translate(192, 48) scale(2)" fill="rgba(245, 245, 220, 1)"></use><use xlink:href="#SvgjsG1030" transform="translate(192, 96) scale(2)" fill="rgba(245, 245, 220, 1)"></use><use xlink:href="#SvgjsG1030" transform="translate(192, 144) scale(2)" fill="rgba(245, 245, 220, 1)"></use><use xlink:href="#SvgjsG1027" transform="translate(192, 192) scale(2)" fill="rgba(245, 245, 220, 1)"></use><use xlink:href="#SvgjsG1028" transform="translate(192, 240) scale(2)" fill="rgba(245, 245, 220, 1)"></use><use xlink:href="#SvgjsG1028" transform="translate(192, 288) scale(2)" fill="rgba(245, 245, 220, 1)"></use><use xlink:href="#SvgjsG1030" transform="translate(192, 336) scale(2)" fill="rgba(245, 245, 220, 1)"></use><use xlink:href="#SvgjsG1028" transform="translate(192, 384) scale(2)" fill="rgba(245, 245, 220, 1)"></use><use xlink:href="#SvgjsG1026" transform="translate(192, 432) scale(2)" fill="rgba(245, 245, 220, 1)"></use><use xlink:href="#SvgjsG1026" transform="translate(240, 0) scale(2)" fill="rgba(245, 245, 220, 1)"></use><use xlink:href="#SvgjsG1032" transform="translate(240, 48) scale(2)" fill="rgba(245, 245, 220, 1)"></use><use xlink:href="#SvgjsG1029" transform="translate(240, 96) scale(2)" fill="rgba(245, 245, 220, 1)"></use><use xlink:href="#SvgjsG1028" transform="translate(240, 144) scale(2)" fill="rgba(245, 245, 220, 1)"></use><use xlink:href="#SvgjsG1031" transform="translate(240, 192) scale(2)" fill="rgba(245, 245, 220, 1)"></use><use xlink:href="#SvgjsG1027" transform="translate(240, 240) scale(2)" fill="rgba(245, 245, 220, 1)"></use><use xlink:href="#SvgjsG1028" transform="translate(240, 288) scale(2)" fill="rgba(245, 245, 220, 1)"></use><use xlink:href="#SvgjsG1032" transform="translate(240, 336) scale(2)" fill="rgba(245, 245, 220, 1)"></use><use xlink:href="#SvgjsG1028" transform="translate(240, 384) scale(2)" fill="rgba(245, 245, 220, 1)"></use><use xlink:href="#SvgjsG1027" transform="translate(240, 432) scale(2)" fill="rgba(245, 245, 220, 1)"></use><use xlink:href="#SvgjsG1026" transform="translate(288, 0) scale(2)" fill="rgba(245, 245, 220, 1)"></use><use xlink:href="#SvgjsG1028" transform="translate(288, 48) scale(2)" fill="rgba(245, 245, 220, 1)"></use><use xlink:href="#SvgjsG1026" transform="translate(288, 96) scale(2)" fill="rgba(245, 245, 220, 1)"></use><use xlink:href="#SvgjsG1030" transform="translate(288, 144) scale(2)" fill="rgba(245, 245, 220, 1)"></use><use xlink:href="#SvgjsG1029" transform="translate(288, 192) scale(2)" fill="rgba(245, 245, 220, 1)"></use><use xlink:href="#SvgjsG1032" transform="translate(288, 240) scale(2)" fill="rgba(245, 245, 220, 1)"></use><use xlink:href="#SvgjsG1028" transform="translate(288, 288) scale(2)" fill="rgba(245, 245, 220, 1)"></use><use xlink:href="#SvgjsG1030" transform="translate(288, 336) scale(2)" fill="rgba(245, 245, 220, 1)"></use><use xlink:href="#SvgjsG1026" transform="translate(288, 384) scale(2)" fill="rgba(245, 245, 220, 1)"></use><use xlink:href="#SvgjsG1028" transform="translate(288, 432) scale(2)" fill="rgba(245, 245, 220, 1)"></use><use xlink:href="#SvgjsG1030" transform="translate(336, 0) scale(2)" fill="rgba(245, 245, 220, 1)"></use><use xlink:href="#SvgjsG1031" transform="translate(336, 48) scale(2)" fill="rgba(245, 245, 220, 1)"></use><use xlink:href="#SvgjsG1027" transform="translate(336, 96) scale(2)" fill="rgba(245, 245, 220, 1)"></use><use xlink:href="#SvgjsG1030" transform="translate(336, 144) scale(2)" fill="rgba(245, 245, 220, 1)"></use><use xlink:href="#SvgjsG1030" transform="translate(336, 192) scale(2)" fill="rgba(245, 245, 220, 1)"></use><use xlink:href="#SvgjsG1031" transform="translate(336, 240) scale(2)" fill="rgba(245, 245, 220, 1)"></use><use xlink:href="#SvgjsG1031" transform="translate(336, 288) scale(2)" fill="rgba(245, 245, 220, 1)"></use><use xlink:href="#SvgjsG1026" transform="translate(336, 336) scale(2)" fill="rgba(245, 245, 220, 1)"></use><use xlink:href="#SvgjsG1030" transform="translate(336, 384) scale(2)" fill="rgba(245, 245, 220, 1)"></use><use xlink:href="#SvgjsG1029" transform="translate(336, 432) scale(2)" fill="rgba(245, 245, 220, 1)"></use><use xlink:href="#SvgjsG1029" transform="translate(384, 0) scale(2)" fill="rgba(245, 245, 220, 1)"></use><use xlink:href="#SvgjsG1027" transform="translate(384, 48) scale(2)" fill="rgba(245, 245, 220, 1)"></use><use xlink:href="#SvgjsG1026" transform="translate(384, 96) scale(2)" fill="rgba(245, 245, 220, 1)"></use><use xlink:href="#SvgjsG1027" transform="translate(384, 144) scale(2)" fill="rgba(245, 245, 220, 1)"></use><use xlink:href="#SvgjsG1027" transform="translate(384, 192) scale(2)" fill="rgba(245, 245, 220, 1)"></use><use xlink:href="#SvgjsG1032" transform="translate(384, 240) scale(2)" fill="rgba(245, 245, 220, 1)"></use><use xlink:href="#SvgjsG1026" transform="translate(384, 288) scale(2)" fill="rgba(245, 245, 220, 1)"></use><use xlink:href="#SvgjsG1030" transform="translate(384, 336) scale(2)" fill="rgba(245, 245, 220, 1)"></use><use xlink:href="#SvgjsG1026" transform="translate(384, 384) scale(2)" fill="rgba(245, 245, 220, 1)"></use><use xlink:href="#SvgjsG1030" transform="translate(384, 432) scale(2)" fill="rgba(245, 245, 220, 1)"></use><use xlink:href="#SvgjsG1032" transform="translate(432, 0) scale(2)" fill="rgba(245, 245, 220, 1)"></use><use xlink:href="#SvgjsG1026" transform="translate(432, 48) scale(2)" fill="rgba(245, 245, 220, 1)"></use><use xlink:href="#SvgjsG1026" transform="translate(432, 96) scale(2)" fill="rgba(245, 245, 220, 1)"></use><use xlink:href="#SvgjsG1032" transform="translate(432, 144) scale(2)" fill="rgba(245, 245, 220, 1)"></use><use xlink:href="#SvgjsG1029" transform="translate(432, 192) scale(2)" fill="rgba(245, 245, 220, 1)"></use><use xlink:href="#SvgjsG1026" transform="translate(432, 240) scale(2)" fill="rgba(245, 245, 220, 1)"></use><use xlink:href="#SvgjsG1028" transform="translate(432, 288) scale(2)" fill="rgba(245, 245, 220, 1)"></use><use xlink:href="#SvgjsG1028" transform="translate(432, 336) scale(2)" fill="rgba(245, 245, 220, 1)"></use><use xlink:href="#SvgjsG1028" transform="translate(432, 384) scale(2)" fill="rgba(245, 245, 220, 1)"></use><use xlink:href="#SvgjsG1027" transform="translate(432, 432) scale(2)" fill="rgba(245, 245, 220, 1)"></use></g></defs></svg>